<?xml version="1.0" encoding="UTF-8" standalone="no"?>
<!-- Created with Inkscape (http://www.inkscape.org/) -->

<svg
   width="180mm"
   height="209mm"
   viewBox="0 0 180 209"
   version="1.1"
   id="svg1"
   xml:space="preserve"
   xmlns="http://www.w3.org/2000/svg"
   xmlns:svg="http://www.w3.org/2000/svg"><defs
     id="defs1" /><g
     id="layer1"><path
       style="fill:#000000"
       d="m 77.345113,207.09738 c -0.27287,-2.22593 -0.29375,-10.8283 -0.0333,-13.72852 l 0.19007,-2.11666 -2.30976,2.38973 c -1.27036,1.31436 -2.69275,2.96797 -3.16087,3.67469 -0.52503,0.79265 -0.89638,1.14419 -0.96928,0.91755 -0.065,-0.20206 -0.37377,-2.39145 -0.68616,-4.86531 -0.31239,-2.47385 -0.71554,-5.50994 -0.89589,-6.74687 l -0.3279,-2.24896 -1.63753,2.22968 c -0.90065,1.22632 -1.64093,2.35741 -1.64508,2.51354 -0.004,0.15612 -0.57954,-1.08535 -1.27865,-2.75884 -0.69912,-1.67349 -1.54409,-3.57849 -1.87772,-4.23334 -1.69315,-3.32327 -5.51425,-8.45382 -8.00855,-10.75299 l -1.16393,-1.07288 -3.95212,-0.15617 c -8.87478,-0.3507 -16.8879,-3.67455 -22.23208,-9.22189 -1.03168,-1.07091 -2.32846,-2.63172 -2.88173,-3.46846 -0.69371,-1.04916 -1.17908,-1.52216 -1.56379,-1.52394 -1.10575,-0.005 -3.22296,-1.24917 -4.45159,-2.61571 -2.37075,-2.63684 -3.13261,-6.49167 -2.09441,-10.5972 0.30891,-1.22159 0.53246,-2.24695 0.49678,-2.27858 -0.0357,-0.0316 -1.37456,-0.56748 -2.97529,-1.19076 C 10.779373,138.03571 -0.00718641,132.74604 3.5927687e-6,132.43571 0.00200359,132.33363 1.3932235,131.53574 3.0908035,130.66262 9.384253,127.42568 15.199323,123.27154 18.970333,119.31867 c 2.26259,-2.3717 4.45893,-5.13048 4.25047,-5.33893 -0.0731,-0.0731 -0.47689,-0.002 -0.89726,0.1584 -0.86216,0.32867 -5.89273,1.57465 -6.35968,1.57518 -0.16704,1.9e-4 1.15364,-1.45818 2.93484,-3.24081 1.78121,-1.78263 3.94732,-4.19364 4.81359,-5.35781 1.62057,-2.17788 4.46386,-6.53935 5.23416,-8.028924 0.43286,-0.83706 0.43136,-0.84259 -0.3011,-1.11477 -1.43674,-0.53389 -4.99953,-2.24453 -7.08611,-3.40233 -5.22907,-2.90152 -9.49157,-6.13905 -12.45819,-9.4625 -6.9264195,-7.75953 -9.11950941,-15.09895 -6.3138395,-21.12996 0.67314,-1.446966 3.40988,-4.074356 5.15431,-4.948369 2.2931295,-1.14892 6.3021295,-2.04761 9.9135595,-2.2223 6.22731,-0.30123 14.76919,1.45976 21.8889,4.512603 l 0.98681,0.42314 0.20381,-0.72891 c 0.11209,-0.4009 0.20381,-5.193763 0.20381,-10.650787 0,-12.134502 -0.50258,-16.823068 -3.19893,-29.842998 -0.64169,-3.098493 -1.16553,-6.134587 -1.16411,-6.746875 0.004,-1.534929 1.03815,-3.624565 2.27702,-4.5990571 4.93276,-3.880108 18.18457,-7.332856 33.43914,-8.712537 6.06014,-0.548101 19.966685,-0.621753 26.193765,-0.138727 16.677372,1.293643 31.602532,4.889326 40.691402,9.8031411 2.3788,1.286081 3.84744,2.673822 4.5445,4.294186 0.74406,1.729617 0.68697,2.191926 -1.01084,8.184997 -2.13953,7.552263 -3.60405,14.94503 -4.39823,22.20162 -0.41792,3.818731 -0.99733,12.988534 -0.8312,13.154674 0.055,0.055 1.5131,-0.30956 3.24019,-0.81017 7.04011,-2.04056 13.56362,-2.80645 19.54437,-2.29461 8.45079,0.72322 9.93163,1.78688 10.14096,7.284083 0.2093,5.496236 -1.96852,13.138386 -5.88707,20.658246 -2.92158,5.60664 -6.15265,10.09969 -10.49553,14.59484 l -2.38334,2.4669 1.68754,2.569364 c 2.81327,4.28337 6.65133,8.69583 10.37702,11.93004 l 1.5875,1.37808 -1.05833,-0.17453 c -0.58208,-0.096 -2.75497,-0.56178 -4.82865,-1.03508 -2.07367,-0.47329 -3.77031,-0.7715 -3.77031,-0.66267 0,0.10882 0.87147,1.19448 1.93659,2.41257 4.54987,5.20328 11.20503,10.21241 18.7775,14.13323 l 3.72029,1.92626 -0.90625,0.39242 c -0.49844,0.21583 -2.57313,1.19111 -4.61042,2.1673 -4.50563,2.15892 -8.76172,3.87203 -14.02292,5.64436 -3.85409,1.29832 -10.2017,3.01027 -12.51803,3.37612 -0.62753,0.0991 -1.04424,0.26693 -0.92605,0.37292 0.33226,0.29796 6.74362,1.80884 10.13679,2.38882 4.13301,0.70642 10.03205,1.13742 13.66471,0.99837 l 3.00386,-0.11498 -1.65355,0.89662 c -0.90946,0.49315 -6.77325,3.46227 -13.03064,6.59806 -21.92119,10.98545 -34.35014,17.93327 -47.36041,26.47463 -12.65917,8.31086 -24.247997,17.34267 -31.923497,24.87976 l -2.55474,2.50867 z m 44.349797,-44.98525 c 1.66079,-2.77837 3.56001,-7.5624 4.12782,-10.39775 0.53813,-2.68716 0.40357,-7.73205 -0.27216,-10.20385 -0.67716,-2.47702 -2.21081,-6.12087 -3.47906,-8.26602 l -1.15634,-1.95587 2.27471,2.06824 c 4.218,3.83513 9.58458,10.54919 11.37541,14.23161 1.07534,2.21118 1.11718,1.88465 0.2163,-1.68784 -1.74466,-6.91852 -5.39849,-13.34818 -10.82663,-19.05164 -2.9113,-3.05897 -9.33592,-8.52419 -11.90306,-10.12557 -2.29369,-1.43079 -2.11431,-1.43356 1.71462,-0.0265 5.22265,1.9192 11.37275,5.08943 18.52084,9.54704 3.28941,2.05131 10.87041,7.16216 12.13082,8.17818 l 0.88603,0.71424 -0.41907,-1.00298 c -0.5479,-1.31132 -2.81778,-5.0615 -3.84897,-6.35909 -0.44622,-0.5615 -0.81131,-1.04857 -0.81131,-1.08236 0,-0.0338 0.86319,0.38951 1.91822,0.94069 6.3175,3.30047 11.51005,4.65562 20.62279,5.38213 l 1.50665,0.12012 -4.94623,-2.47706 c -6.15965,-3.08473 -12.78853,-7.08743 -22.54102,-13.61088 -13.05176,-8.73034 -23.60588,-13.40335 -34.39583,-15.22932 -3.07707,-0.52073 -11.080712,-0.7917 -13.692187,-0.46357 -1.05503,0.13257 -1.91668,0.17326 -1.91478,0.0904 0.005,-0.22698 5.434755,-2.292974 7.885545,-3.000524 1.18413,-0.34186 2.24502,-0.72011 2.35751,-0.84055 0.32633,-0.34939 -9.332955,0.0659 -12.098595,0.52019 -6.13437,1.0076 -11.38221,2.723234 -14.55208,4.757424 -4.49661,2.88559 -7.75299,7.67251 -9.67838,14.22735 -0.95132,3.2387 -1.11238,3.19809 2.03779,0.51383 4.18164,-3.56316 9.76875,-6.70678 12.79996,-7.20198 3.27944,-0.53575 5.62787,0.35362 11.90533,4.50864 11.242755,7.44151 19.566797,15.18839 24.811697,23.09133 6.06624,9.14053 8.60641,19.82468 6.64855,27.9643 -0.19608,0.81521 0.90456,-0.70964 2.79511,-3.87236 z m -66.533597,2.01258 c 3.32583,-0.37421 7.87203,-1.51873 14.03957,-3.53451 2.90126,-0.94824 6.16798,-1.9631 7.25939,-2.25525 2.49675,-0.66833 7.124,-1.34023 10.79796,-1.56791 l 2.828085,-0.17526 -1.852095,-0.72385 c -1.01864,-0.39811 -2.74505,-0.95202 -3.83645,-1.23091 -1.56807,-0.40069 -1.84561,-0.53979 -1.32292,-0.66307 2.51846,-0.59399 3.38718,-0.71384 6.217715,-0.85779 3.28862,-0.16725 8.61853,0.31737 11.904062,1.08239 0.87193,0.20302 1.62263,0.33182 1.66823,0.28622 0.16381,-0.16381 -3.03592,-2.05025 -5.370212,-3.16608 -1.30969,-0.62605 -3.74208,-1.58491 -5.40532,-2.1308 -1.66325,-0.5459 -3.508715,-1.19895 -4.101055,-1.45124 l -1.07696,-0.45869 2.910415,-0.17462 c 1.67727,-0.10063 3.35884,-0.064 3.96875,0.0865 1.79299,0.44244 1.87737,0.30827 0.38131,-0.60633 -6.412515,-3.92023 -8.385575,-5.05876 -12.684435,-7.31942 -8.53746,-4.48962 -15.08829,-7.51058 -22.75417,-10.49324 -6.62812,-2.57889 -6.34204,-2.42975 -6.20638,-3.23562 1.71912,-10.21248 3.22759,-16.38551 5.28413,-21.62398 0.50096,-1.27608 0.88365,-2.33033 0.8504,-2.34277 -0.0332,-0.0125 -0.89637,0.0187 -1.91806,0.0691 l -1.85763,0.0918 -1.67496,4.67701 c -4.57641,12.77881 -8.23927,17.58329 -19.08375,25.0317 -1.23692,0.84957 -2.34845,1.63409 -2.47005,1.74338 -0.1216,0.10929 0.59278,0.45936 1.5875,0.77793 4.81068,1.54068 7.05913,4.03592 7.04268,7.81568 -0.0179,4.12077 -2.48255,7.62101 -6.42471,9.12437 -0.50932,0.19423 -1.02035,0.43432 -1.13561,0.53354 -0.27561,0.23724 3.27255,1.62787 6.37975,2.50042 6.95288,1.95246 14.51395,1.94917 20.36942,-0.009 2.29212,-0.76647 3.61823,-1.41234 7.85623,-3.82629 3.49912,-1.99308 5.42446,-2.55142 9.65729,-2.80053 1.84816,-0.10877 2.15466,-0.0746 1.71979,0.19188 -0.29104,0.17834 -1.71979,1.23732 -3.175,2.35329 -5.05603,3.87739 -8.43012,5.83372 -12.78451,7.41259 -3.86127,1.40008 -6.59008,1.88048 -11.56955,2.03679 -4.708,0.1478 -7.23034,-0.0677 -11.69541,-0.99929 -8.65362,-1.80544 -8.26823,-1.74438 -8.26823,-1.31018 0,0.51556 3.59401,3.20697 5.80552,4.34752 5.29181,2.72917 10.95927,3.60224 18.13927,2.79435 z m -31.76377,-14.82989 c -0.77348,-1.17568 -1.62259,-2.66351 -1.88691,-3.3063 -0.26431,-0.64279 -0.56257,-1.16916 -0.6628,-1.1697 -0.30359,-0.002 -0.55096,2.31183 -0.35747,3.34321 0.0997,0.53157 0.37602,1.26366 0.614,1.62685 0.46665,0.7122 2.22057,1.62829 3.13552,1.63772 0.5049,0.005 0.41664,-0.21817 -0.84234,-2.13178 z m 4.58023,-5.31283 c 0.19063,-0.19063 0.2482,-0.73324 0.15215,-1.43404 l -0.15453,-1.12737 1.28984,-0.17958 c 2.27393,-0.31659 4.78449,-0.93856 5.29342,-1.31141 0.48024,-0.35182 0.47852,-0.38346 -0.0605,-1.11039 -0.30516,-0.41154 -1.24924,-1.10544 -2.09796,-1.542 -1.39812,-0.71916 -1.78106,-0.79375 -4.07537,-0.79375 -2.95117,0 -4.5078,0.58294 -5.50881,2.06297 -0.77493,1.14577 -0.75593,1.7231 0.0635,1.92876 0.49745,0.12485 0.72987,0.43389 0.94898,1.26181 0.43358,1.63834 1.41948,2.55167 2.75442,2.55167 0.59852,0 1.22621,-0.138 1.39488,-0.30667 z m -11.91291,-11.27822 c 3.11824,-1.34653 5.31513,-2.88158 8.00791,-5.59543 3.09375,-3.11796 4.93578,-5.93011 5.17605,-7.90205 0.30045,-2.46591 1.08166,-4.61248 2.12016,-5.82574 1.26908,-1.48262 2.15163,-1.90022 4.01593,-1.90022 1.24919,0 1.77945,0.14625 2.74084,0.75594 1.47284,0.93405 2.66231,2.34487 3.66994,4.35287 l 0.77125,1.53694 0.51197,-1.00777 c 0.28159,-0.55428 0.83571,-2.01981 1.23138,-3.25673 0.98991,-3.09462 1.06678,-7.16818 0.18847,-9.98802 l -0.59747,-1.91823 h -1.07903 c -0.91963,0 -1.05251,0.0684 -0.89953,0.46302 0.36151,0.93253 0.92733,3.33747 0.81228,3.45251 -0.0651,0.0651 -0.68803,-0.38296 -1.38421,-0.99577 -1.35574,-1.19337 -4.91035,-3.02474 -6.43012,-3.31287 -0.50932,-0.0966 -1.16416,-0.24359 -1.4552,-0.32674 -0.33825,-0.0966 0.0436,0.46602 1.05833,1.55945 1.53845,1.65778 3.47652,4.18748 3.20814,4.18748 -0.0726,0 -1.34938,-0.59531 -2.83725,-1.32292 -1.48788,-0.7276 -2.84879,-1.32291 -3.02425,-1.32291 -0.53408,0 -1.64347,1.91491 -5.8248,10.05416 -2.20534,4.29287 -4.52142,8.63865 -5.14682,9.6573 -2.53801,4.13384 -4.05357,6.25409 -5.6561,7.91279 -0.92698,0.95947 -1.64307,1.7445 -1.59132,1.7445 0.0517,0 1.1378,-0.4507 2.41345,-1.00156 z m 63.01872,-9.93234 c 2.11324,-1.39848 2.32368,-4.28036 0.44942,-6.15462 -1.93798,-1.93798 -5.07196,-1.57143 -6.53954,0.76487 -0.81397,1.2958 -0.59743,3.61073 0.441,4.71447 1.60111,1.70181 3.71592,1.9546 5.64912,0.67528 z m -42.74361,-0.0143 c 1.30811,-0.54657 2.0203,-1.60573 2.0203,-3.00462 0,-0.98669 -0.1457,-1.32709 -0.88399,-2.06539 -1.0962,-1.0962 -1.87113,-1.30423 -3.21215,-0.86231 -2.67511,0.88156 -3.02691,4.66306 -0.54765,5.88664 1.00887,0.49791 1.51986,0.50681 2.62349,0.0457 z M 140.33531,96.383806 c 1.87975,-0.30701 4.32053,-0.78438 5.42395,-1.06082 2.00081,-0.50127 2.01333,-0.50995 4.65205,-3.22708 3.57439,-3.68061 5.82645,-6.92221 8.31507,-11.9687 2.79078,-5.65919 4.57076,-11.13053 4.95058,-15.21718 l 0.16614,-1.787666 -1.9534,-0.20383 c -3.23694,-0.33776 -10.19034,-0.19534 -13.30429,0.272486 -3.9567,0.59444 -9.7207,2.07745 -13.37956,3.44241 -8.58787,3.20373 -13.61356,5.74056 -26.46641,13.35953 -7.8391,4.6469 -13.367092,7.75638 -15.742712,8.85524 -6.752615,3.12345 -8.905295,4.07088 -12.038545,5.29832 -1.96453,0.76959 -4.07866,1.5508 -4.69806,1.73602 -2.20142,0.65826 -0.84618,0.54558 3.28531,-0.27316 10.707225,-2.12186 17.630905,-4.53618 26.995367,-9.41342 19.5225,-10.16781 25.27958,-12.65216 33.41947,-14.42151 2.76685,-0.60142 9.2754,-0.96669 11.73941,-0.65883 1.35059,0.16874 1.47904,0.2402 1.37061,0.76244 -0.0658,0.31693 -0.3031,1.53597 -0.52733,2.70898 -0.5413,2.83177 -1.27446,5.03257 -2.64967,7.95386 -1.48109,3.14616 -2.94029,5.26503 -5.40986,7.85559 -2.45397,2.57418 -4.19191,3.89529 -7.30128,5.55009 -2.71077,1.44267 -2.86875,1.42077 3.15316,0.43723 z m -81.469827,-3.68328 c 6.23981,-0.9389 13.92536,-3.05626 20.37291,-5.61271 2.82971,-1.12197 11.773965,-5.37877 11.773965,-5.60352 0,-0.0742 -0.82752,0.14652 -1.83893,0.49052 -6.456555,2.19602 -20.791955,5.10673 -30.043365,6.10012 -4.75553,0.51063 -14.23975,0.58039 -17.99167,0.13232 -14.3778,-1.71704 -25.85735,-7.80432 -29.82767,-15.81676 -1.06465,-2.14855 -1.12845,-2.40607 -1.12629,-4.54646 0.002,-1.68134 0.12576,-2.49623 0.47907,-3.1467 0.4684,-0.86237 0.46768,-0.87292 -0.0414,-0.60047 -0.98586,0.52762 -2.6185495,2.66325 -2.9551495,3.86545 -1.39572,4.98504 3.4456695,12.34751 11.4510995,17.41407 7.12336,4.5083 13.89929,6.70539 24.53389,7.95507 2.42111,0.28451 11.68213,-0.0996 15.21355,-0.63093 z m 21.62772,-17.59678 c 11.252525,-0.91689 19.819537,-2.53781 24.538237,-4.64276 l 1.72363,-0.76889 -11.377092,-0.0105 c -12.785555,-0.0118 -20.427955,-0.29986 -28.575005,-1.07715 -3.05593,-0.29156 -6.48305,-0.60438 -7.61582,-0.69516 -1.13276,-0.0908 -2.10689,-0.24161 -2.16472,-0.33518 -0.0578,-0.0936 3.19069,-0.44034 7.21895,-0.77058 9.02893,-0.74021 12.83554,-1.14719 20.28868,-2.16918 5.520555,-0.75698 13.699865,-2.117776 13.559095,-2.255826 -0.0359,-0.0353 -3.04191,-0.25704 -6.67993,-0.49288 -7.361125,-0.4772 -26.319245,-2.168663 -26.516405,-2.365823 -0.0896,-0.0896 2.00611,-0.21358 14.87474,-0.88006 14.711075,-0.7619 39.027377,-0.58521 49.410937,0.35903 l 1.78594,0.1624 v -1.84014 -1.84014 l -5.75469,-0.45755 c -10.32905,-0.82124 -14.78625,-0.9826 -31.419272,-1.13749 -10.609565,-0.0988 -19.535115,-0.0412 -25.267705,0.16298 -9.35619,0.33329 -20.6159,0.96542 -20.81929,1.16882 -0.0664,0.0664 -0.29162,1.98929 -0.50039,4.27301 -0.20877,2.283723 -0.67647,6.252969 -1.03933,8.820559 -0.80076,5.66619 -0.79895,5.50606 -0.0644,5.68979 1.48262,0.37085 9.3047,1.27847 12.8359,1.48939 4.96326,0.29645 15.49171,0.1076 21.55797,-0.38669 z M 55.631273,44.408468 c -0.0326,-2.764896 -0.1882,-7.289271 -0.34586,-10.054166 -0.39499,-6.92695 -1.69919,-22.064713 -1.98718,-23.065136 -0.0901,-0.313134 -2.14553,0.04189 -4.32285,0.746679 l -0.89425,0.289468 0.16213,1.489495 c 0.0892,0.819222 0.39574,3.275432 0.68126,5.458245 0.97951,7.488527 2.13059,22.039134 2.13936,27.043418 0.006,3.354264 -0.0478,3.285031 2.4773,3.195385 l 2.1493,-0.07631 z m 8.01716,-1.946191 c -0.2647,-9.391274 -1.1439,-23.947912 -1.89998,-31.457453 -0.16599,-1.6486221 -0.16901,-1.6535661 -0.99557,-1.6272721 -1.57842,0.05021 -2.1575,0.339892 -2.08908,1.0450511 0.98435,10.146113 1.87252,23.349517 2.05478,30.546282 0.0848,3.346979 0.21125,6.561666 0.28108,7.143749 l 0.12696,1.058334 1.3528,-0.09411 1.3528,-0.09411 z"
       id="path1" /></g></svg>
