<svg version="1.1" id="Layer_1" xmlns="http://www.w3.org/2000/svg" xmlns:xlink="http://www.w3.org/1999/xlink" x="0px" y="0px"
	 width="100%" viewBox="0 0 512 512" enable-background="new 0 0 512 512" xml:space="preserve">
<path fill="#00FF0000" opacity="1.000000" stroke="none" 
	d="
M513.000000,266.000000 
	C513.000000,348.273285 513.000000,430.546539 513.000000,513.000000 
	C395.645844,513.000000 278.291565,513.000000 160.180801,512.703735 
	C160.897659,511.155823 162.324768,509.844452 163.852234,508.662781 
	C171.074142,503.075897 173.899292,493.266052 171.020340,484.363892 
	C168.466904,476.468323 159.431641,469.731537 151.041626,469.910187 
	C136.053894,470.229340 121.053398,470.097107 106.060707,469.931183 
	C102.351830,469.890137 98.587631,469.277130 94.960045,468.443329 
	C80.741844,465.175201 68.844528,458.235931 59.262157,446.928284 
	C49.521706,435.434174 44.174610,422.240875 44.135761,407.529175 
	C43.874870,308.732605 43.988602,209.934998 44.042091,111.137749 
	C44.044209,107.226646 44.643372,103.313957 45.000141,99.405281 
	C46.288208,85.293571 52.632515,73.385902 62.233273,63.467831 
	C74.578011,50.715084 90.111794,44.350929 107.886375,44.048569 
	C122.043777,43.807743 136.218338,43.680199 150.366547,44.113838 
	C159.605560,44.397007 168.471024,37.491570 170.971344,29.795580 
	C173.718521,21.339811 171.729599,11.188536 163.647430,5.072953 
	C162.221008,3.993623 161.205353,2.371474 160.000000,0.999999 
	C277.580841,1.000000 395.161713,1.000000 513.000000,1.000000 
	C513.000000,83.020714 513.000000,165.041702 512.699646,247.820511 
	C512.000366,248.278702 511.413208,248.065475 511.230194,247.666718 
	C506.965088,238.374557 499.317444,234.930038 489.575714,234.996078 
	C439.161194,235.337845 388.746979,235.817963 338.331848,235.960648 
	C279.004456,236.128555 219.676193,236.000000 160.348312,236.000000 
	C159.073502,236.000000 157.798691,236.000000 155.481735,236.000000 
	C159.116852,231.628952 161.931458,227.670471 165.310074,224.272827 
	C192.101715,197.330093 218.959930,170.453049 245.911255,143.670120 
	C249.872513,139.733612 251.717880,134.962860 251.877151,129.802353 
	C252.164062,120.507408 247.666092,112.425583 240.011276,109.115166 
	C229.794357,104.696732 220.633865,106.919182 214.021820,113.506912 
	C185.806534,141.618484 157.531937,169.673721 129.635742,198.099625 
	C124.270050,203.567215 119.696968,210.188522 116.165215,217.006424 
	C107.137451,234.434128 104.364197,252.901245 107.842712,272.517975 
	C110.793953,289.161133 117.748428,303.715851 129.300949,315.563354 
	C157.337509,344.315857 185.878891,372.580536 214.528259,400.724823 
	C217.722610,403.862854 222.748734,406.060608 227.231445,406.775787 
	C237.431610,408.403107 245.641174,403.260498 250.016724,394.050690 
	C253.799835,386.087830 251.273926,375.595581 244.832321,369.217896 
	C217.476349,342.133331 190.319046,314.847900 163.144623,287.580536 
	C160.799271,285.227173 158.860291,282.468781 155.988693,279.000000 
	C158.947891,279.000000 160.697021,279.000000 162.446136,279.000000 
	C271.936066,279.000000 381.426025,279.010345 490.915955,278.979950 
	C499.506836,278.977570 506.124817,275.231476 510.687195,267.872620 
	C511.180786,267.076477 512.216003,266.616119 513.000000,266.000000 
z"/>
<path fill="#FFFFFF" opacity="1.000000" stroke="none" 
	d="
M513.000000,265.532043 
	C512.216003,266.616119 511.180786,267.076477 510.687195,267.872620 
	C506.124817,275.231476 499.506836,278.977570 490.915955,278.979950 
	C381.426025,279.010345 271.936066,279.000000 162.446136,279.000000 
	C160.697021,279.000000 158.947891,279.000000 155.988693,279.000000 
	C158.860291,282.468781 160.799271,285.227173 163.144623,287.580536 
	C190.319046,314.847900 217.476349,342.133331 244.832321,369.217896 
	C251.273926,375.595581 253.799835,386.087830 250.016724,394.050690 
	C245.641174,403.260498 237.431610,408.403107 227.231445,406.775787 
	C222.748734,406.060608 217.722610,403.862854 214.528259,400.724823 
	C185.878891,372.580536 157.337509,344.315857 129.300949,315.563354 
	C117.748428,303.715851 110.793953,289.161133 107.842712,272.517975 
	C104.364197,252.901245 107.137451,234.434128 116.165215,217.006424 
	C119.696968,210.188522 124.270050,203.567215 129.635742,198.099625 
	C157.531937,169.673721 185.806534,141.618484 214.021820,113.506912 
	C220.633865,106.919182 229.794357,104.696732 240.011276,109.115166 
	C247.666092,112.425583 252.164062,120.507408 251.877151,129.802353 
	C251.717880,134.962860 249.872513,139.733612 245.911255,143.670120 
	C218.959930,170.453049 192.101715,197.330093 165.310074,224.272827 
	C161.931458,227.670471 159.116852,231.628952 155.481735,236.000000 
	C157.798691,236.000000 159.073502,236.000000 160.348312,236.000000 
	C219.676193,236.000000 279.004456,236.128555 338.331848,235.960648 
	C388.746979,235.817963 439.161194,235.337845 489.575714,234.996078 
	C499.317444,234.930038 506.965088,238.374557 511.230194,247.666718 
	C511.413208,248.065475 512.000366,248.278702 512.699646,248.289169 
	C513.000000,253.688034 513.000000,259.376068 513.000000,265.532043 
z"/>
<path fill="#FFFFFF" opacity="1.000000" stroke="none" 
	d="
M159.531342,0.999999 
	C161.205353,2.371474 162.221008,3.993623 163.647430,5.072953 
	C171.729599,11.188536 173.718521,21.339811 170.971344,29.795580 
	C168.471024,37.491570 159.605560,44.397007 150.366547,44.113838 
	C136.218338,43.680199 122.043777,43.807743 107.886375,44.048569 
	C90.111794,44.350929 74.578011,50.715084 62.233273,63.467831 
	C52.632515,73.385902 46.288208,85.293571 45.000141,99.405281 
	C44.643372,103.313957 44.044209,107.226646 44.042091,111.137749 
	C43.988602,209.934998 43.874870,308.732605 44.135761,407.529175 
	C44.174610,422.240875 49.521706,435.434174 59.262157,446.928284 
	C68.844528,458.235931 80.741844,465.175201 94.960045,468.443329 
	C98.587631,469.277130 102.351830,469.890137 106.060707,469.931183 
	C121.053398,470.097107 136.053894,470.229340 151.041626,469.910187 
	C159.431641,469.731537 168.466904,476.468323 171.020340,484.363892 
	C173.899292,493.266052 171.074142,503.075897 163.852234,508.662781 
	C162.324768,509.844452 160.897659,511.155823 159.712143,512.703735 
	C135.979111,513.000000 111.958214,513.000000 87.767441,512.652344 
	C83.349098,511.005432 79.074448,509.785492 74.856674,508.393250 
	C55.520630,502.010620 39.112709,491.376251 25.980009,475.600098 
	C14.410474,461.701721 6.277918,446.293762 2.918331,428.446838 
	C2.808773,427.864807 1.662822,427.477875 0.999996,427.000000 
	C1.000000,313.979095 1.000000,200.958206 1.414937,87.462845 
	C2.315080,85.434891 2.850271,83.895035 3.277966,82.325874 
	C9.368642,59.980080 20.453327,40.838329 38.513161,25.881813 
	C52.389294,14.390086 67.699165,6.164993 85.540070,2.917871 
	C86.123734,2.811642 86.517639,1.662816 87.000000,0.999999 
	C111.020897,1.000000 135.041794,1.000000 159.531342,0.999999 
z"/>
<path fill="#00FF0000" opacity="1.000000" stroke="none" 
	d="
M0.999996,427.468658 
	C1.662822,427.477875 2.808773,427.864807 2.918331,428.446838 
	C6.277918,446.293762 14.410474,461.701721 25.980009,475.600098 
	C39.112709,491.376251 55.520630,502.010620 74.856674,508.393250 
	C79.074448,509.785492 83.349098,511.005432 87.298782,512.652344 
	C58.406429,513.000000 29.812860,513.000000 1.000000,513.000000 
	C1.000000,484.646149 1.000000,456.291748 0.999996,427.468658 
z"/>
<path fill="#00FF0000" opacity="1.000000" stroke="none" 
	d="
M86.531342,0.999999 
	C86.517639,1.662816 86.123734,2.811642 85.540070,2.917871 
	C67.699165,6.164993 52.389294,14.390086 38.513161,25.881813 
	C20.453327,40.838329 9.368642,59.980080 3.277966,82.325874 
	C2.850271,83.895035 2.315080,85.434891 1.414937,86.994186 
	C1.000000,58.406425 1.000000,29.812853 1.000000,1.000000 
	C29.353851,1.000000 57.708267,1.000000 86.531342,0.999999 
z"/>
</svg>