<svg version="1.1" id="Layer_1" xmlns="http://www.w3.org/2000/svg" xmlns:xlink="http://www.w3.org/1999/xlink" x="0px" y="0px"
	 width="100%" viewBox="0 0 512 512" enable-background="new 0 0 512 512" xml:space="preserve">
<path fill="#FFFFFF" opacity="1.000000" stroke="none" 
	d="
M1.000003,406.000000 
	C1.000000,306.979095 1.000000,207.958206 1.343198,108.765999 
	C2.990636,104.346497 4.195457,100.064751 5.615906,95.855789 
	C12.675550,74.937157 24.789125,57.629814 42.346096,44.109512 
	C61.048351,29.707258 82.146294,22.266527 105.701859,22.038574 
	C125.197838,21.849909 144.697174,21.964716 164.194839,22.016298 
	C172.729004,22.038876 180.822556,24.075893 188.459427,27.878235 
	C210.362747,38.783741 232.133011,49.969444 254.243195,60.437531 
	C259.896637,63.114162 266.606537,64.758614 272.846710,64.805878 
	C319.838715,65.161812 366.835083,64.906319 413.828827,65.114494 
	C419.939270,65.141556 426.170807,66.206253 432.126770,67.678246 
	C454.615936,73.236320 473.419403,84.803185 488.311768,102.739349 
	C499.752930,116.518906 507.840149,131.802933 511.081390,149.528015 
	C511.188934,150.115967 512.336975,150.513626 513.000000,151.000000 
	C513.000000,235.687561 513.000000,320.375122 512.656860,405.233978 
	C511.009491,409.653290 509.815002,413.938690 508.382843,418.143127 
	C500.972687,439.897308 488.232513,458.008942 469.731598,471.550323 
	C451.115265,485.176147 430.021240,492.043945 406.744385,492.028625 
	C305.432495,491.961945 204.120453,492.039215 102.808670,491.903381 
	C96.668373,491.895142 90.410744,491.017731 84.412048,489.649109 
	C62.629402,484.679260 44.049870,474.101593 28.875113,457.479828 
	C16.636871,444.074585 8.066161,428.869415 3.906753,411.162506 
	C3.472996,409.315948 1.994028,407.714935 1.000003,406.000000 
M448.499878,191.000000 
	C422.753693,191.333328 397.008423,191.800476 371.261169,191.973358 
	C309.357269,192.388992 247.452759,192.757919 185.547897,192.969635 
	C140.225906,193.124634 94.902962,193.000000 49.580441,193.000000 
	C47.808380,193.000000 46.036320,193.000000 44.000000,193.000000 
	C44.000000,195.321259 44.000000,197.125336 44.000000,198.929413 
	C44.000000,257.248840 43.969124,315.568268 44.043823,373.887604 
	C44.052040,380.301208 44.617348,386.716949 45.008713,393.126556 
	C45.745605,405.194916 51.037884,415.558899 58.347420,424.665405 
	C71.876068,441.520020 90.293076,448.897095 111.496696,448.931305 
	C208.473312,449.087646 305.450439,449.062531 402.426941,448.870453 
	C409.488678,448.856476 416.761688,447.763977 423.569122,445.859680 
	C452.138092,437.867981 469.704224,411.954254 469.866180,386.460022 
	C470.271606,322.644501 470.001373,258.824677 469.989838,195.006561 
	C469.989624,193.736511 469.837860,192.466476 469.744263,191.000000 
	C462.786346,191.000000 456.143066,191.000000 448.499878,191.000000 
M261.396912,149.000000 
	C265.813660,148.666672 270.228729,148.067902 274.647400,148.039993 
	C336.703430,147.647736 398.759949,147.334732 460.816284,146.987778 
	C461.855804,146.981964 462.894318,146.793854 464.342407,146.650238 
	C459.921021,137.459183 454.602722,129.875687 447.174927,123.487144 
	C435.325409,113.295578 421.599426,108.228508 406.360809,108.119125 
	C360.385010,107.789108 314.404755,107.875237 268.427551,108.086708 
	C256.763794,108.140358 245.998795,105.302643 235.731216,100.243706 
	C215.665604,90.357155 195.634583,80.395561 175.723724,70.202301 
	C168.593887,66.552223 161.291016,64.699074 153.304230,64.970421 
	C133.986649,65.626724 114.567711,63.452858 95.354927,67.003944 
	C75.851212,70.608803 61.915234,81.959373 52.061340,98.681870 
	C42.694408,114.577950 43.683090,132.138702 44.143555,149.000000 
	C116.409424,149.000000 188.414322,149.000000 261.396912,149.000000 
z"/>
<path fill="#000000" opacity="1.000000" stroke="none" 
	d="
M513.000000,150.531342 
	C512.336975,150.513626 511.188934,150.115967 511.081390,149.528015 
	C507.840149,131.802933 499.752930,116.518906 488.311768,102.739349 
	C473.419403,84.803185 454.615936,73.236320 432.126770,67.678246 
	C426.170807,66.206253 419.939270,65.141556 413.828827,65.114494 
	C366.835083,64.906319 319.838715,65.161812 272.846710,64.805878 
	C266.606537,64.758614 259.896637,63.114162 254.243195,60.437531 
	C232.133011,49.969444 210.362747,38.783741 188.459427,27.878235 
	C180.822556,24.075893 172.729004,22.038876 164.194839,22.016298 
	C144.697174,21.964716 125.197838,21.849909 105.701859,22.038574 
	C82.146294,22.266527 61.048351,29.707258 42.346096,44.109512 
	C24.789125,57.629814 12.675550,74.937157 5.615906,95.855789 
	C4.195457,100.064751 2.990636,104.346497 1.343198,108.297340 
	C1.000000,72.353622 1.000000,36.707241 1.000000,1.030431 
	C171.549286,1.030431 342.098602,1.030431 513.000000,1.030431 
	C513.000000,50.687008 513.000000,100.374847 513.000000,150.531342 
z"/>
<path fill="#000000" opacity="1.000000" stroke="none" 
	d="
M1.000003,406.468658 
	C1.994028,407.714935 3.472996,409.315948 3.906753,411.162506 
	C8.066161,428.869415 16.636871,444.074585 28.875113,457.479828 
	C44.049870,474.101593 62.629402,484.679260 84.412048,489.649109 
	C90.410744,491.017731 96.668373,491.895142 102.808670,491.903381 
	C204.120453,492.039215 305.432495,491.961945 406.744385,492.028625 
	C430.021240,492.043945 451.115265,485.176147 469.731598,471.550323 
	C488.232513,458.008942 500.972687,439.897308 508.382843,418.143127 
	C509.815002,413.938690 511.009491,409.653290 512.656860,405.702637 
	C513.000000,441.645172 513.000000,477.290314 513.000000,512.936157 
	C342.333313,512.936768 171.666656,512.936768 1.000000,512.936768 
	C1.000000,477.561493 1.000000,442.249420 1.000003,406.468658 
z"/>
<path fill="#000000" opacity="1.000000" stroke="none" 
	d="
M448.999847,191.000000 
	C456.143066,191.000000 462.786346,191.000000 469.744263,191.000000 
	C469.837860,192.466476 469.989624,193.736511 469.989838,195.006561 
	C470.001373,258.824677 470.271606,322.644501 469.866180,386.460022 
	C469.704224,411.954254 452.138092,437.867981 423.569122,445.859680 
	C416.761688,447.763977 409.488678,448.856476 402.426941,448.870453 
	C305.450439,449.062531 208.473312,449.087646 111.496696,448.931305 
	C90.293076,448.897095 71.876068,441.520020 58.347420,424.665405 
	C51.037884,415.558899 45.745605,405.194916 45.008713,393.126556 
	C44.617348,386.716949 44.052040,380.301208 44.043823,373.887604 
	C43.969124,315.568268 44.000000,257.248840 44.000000,198.929413 
	C44.000000,197.125336 44.000000,195.321259 44.000000,193.000000 
	C46.036320,193.000000 47.808380,193.000000 49.580441,193.000000 
	C94.902962,193.000000 140.225906,193.124634 185.547897,192.969635 
	C247.452759,192.757919 309.357269,192.388992 371.261169,191.973358 
	C397.008423,191.800476 422.753693,191.333328 448.999847,191.000000 
z"/>
<path fill="#000000" opacity="1.000000" stroke="none" 
	d="
M260.908081,149.000000 
	C188.414322,149.000000 116.409424,149.000000 44.143555,149.000000 
	C43.683090,132.138702 42.694408,114.577950 52.061340,98.681870 
	C61.915234,81.959373 75.851212,70.608803 95.354927,67.003944 
	C114.567711,63.452858 133.986649,65.626724 153.304230,64.970421 
	C161.291016,64.699074 168.593887,66.552223 175.723724,70.202301 
	C195.634583,80.395561 215.665604,90.357155 235.731216,100.243706 
	C245.998795,105.302643 256.763794,108.140358 268.427551,108.086708 
	C314.404755,107.875237 360.385010,107.789108 406.360809,108.119125 
	C421.599426,108.228508 435.325409,113.295578 447.174927,123.487144 
	C454.602722,129.875687 459.921021,137.459183 464.342407,146.650238 
	C462.894318,146.793854 461.855804,146.981964 460.816284,146.987778 
	C398.759949,147.334732 336.703430,147.647736 274.647400,148.039993 
	C270.228729,148.067902 265.813660,148.666672 260.908081,149.000000 
z"/>
</svg>